<mxfile host="app.diagrams.net" modified="2022-03-05T18:51:32.479Z" agent="5.0 (Windows NT 10.0; Win64; x64) AppleWebKit/537.36 (KHTML, like Gecko) Chrome/99.0.4844.51 Safari/537.36" etag="nQ8Bc8uBcxhTVpxKdsAn" version="16.6.6" type="github">
  <diagram id="-ejqz5_OEzSG8BydX028" name="Page-1">
    <mxGraphModel dx="1881" dy="2025" grid="1" gridSize="10" guides="1" tooltips="1" connect="1" arrows="1" fold="1" page="1" pageScale="1" pageWidth="850" pageHeight="1100" math="0" shadow="0">
      <root>
        <mxCell id="0" />
        <mxCell id="1" parent="0" />
        <mxCell id="-0OhzZYQsD47DFEum3Dk-1" value="" style="rounded=0;whiteSpace=wrap;html=1;" vertex="1" parent="1">
          <mxGeometry x="360" y="80" width="120" height="80" as="geometry" />
        </mxCell>
        <mxCell id="-0OhzZYQsD47DFEum3Dk-2" value="&lt;font style=&quot;font-size: 18px&quot;&gt;&#39;Perevod&#39;&lt;/font&gt;" style="text;html=1;strokeColor=none;fillColor=none;align=center;verticalAlign=middle;whiteSpace=wrap;rounded=0;" vertex="1" parent="1">
          <mxGeometry x="385" y="97.5" width="70" height="45" as="geometry" />
        </mxCell>
        <mxCell id="-0OhzZYQsD47DFEum3Dk-3" value="" style="rounded=0;whiteSpace=wrap;html=1;" vertex="1" parent="1">
          <mxGeometry x="240" y="200" width="120" height="80" as="geometry" />
        </mxCell>
        <mxCell id="-0OhzZYQsD47DFEum3Dk-4" value="&lt;font style=&quot;font-size: 18px&quot;&gt;&#39;D_x&#39;&lt;/font&gt;" style="text;html=1;strokeColor=none;fillColor=none;align=center;verticalAlign=middle;whiteSpace=wrap;rounded=0;" vertex="1" parent="1">
          <mxGeometry x="265" y="217.5" width="70" height="45" as="geometry" />
        </mxCell>
        <mxCell id="-0OhzZYQsD47DFEum3Dk-5" value="" style="rounded=0;whiteSpace=wrap;html=1;" vertex="1" parent="1">
          <mxGeometry x="480" y="200" width="120" height="80" as="geometry" />
        </mxCell>
        <mxCell id="-0OhzZYQsD47DFEum3Dk-6" value="&lt;span style=&quot;font-size: 18px&quot;&gt;&#39;x_D&#39;&lt;/span&gt;" style="text;html=1;strokeColor=none;fillColor=none;align=center;verticalAlign=middle;whiteSpace=wrap;rounded=0;" vertex="1" parent="1">
          <mxGeometry x="505" y="217.5" width="70" height="45" as="geometry" />
        </mxCell>
        <mxCell id="-0OhzZYQsD47DFEum3Dk-8" value="" style="rounded=0;whiteSpace=wrap;html=1;" vertex="1" parent="1">
          <mxGeometry x="690" y="200" width="120" height="80" as="geometry" />
        </mxCell>
        <mxCell id="-0OhzZYQsD47DFEum3Dk-9" value="&lt;span style=&quot;font-size: 18px&quot;&gt;&#39;test_str&#39;&lt;/span&gt;" style="text;html=1;strokeColor=none;fillColor=none;align=center;verticalAlign=middle;whiteSpace=wrap;rounded=0;" vertex="1" parent="1">
          <mxGeometry x="715" y="217.5" width="70" height="45" as="geometry" />
        </mxCell>
        <mxCell id="-0OhzZYQsD47DFEum3Dk-10" value="" style="rounded=0;whiteSpace=wrap;html=1;" vertex="1" parent="1">
          <mxGeometry x="30" y="200" width="120" height="80" as="geometry" />
        </mxCell>
        <mxCell id="-0OhzZYQsD47DFEum3Dk-11" value="&lt;span style=&quot;font-size: 18px&quot;&gt;&#39;test10&#39;&lt;/span&gt;" style="text;html=1;strokeColor=none;fillColor=none;align=center;verticalAlign=middle;whiteSpace=wrap;rounded=0;" vertex="1" parent="1">
          <mxGeometry x="55" y="217.5" width="70" height="45" as="geometry" />
        </mxCell>
        <mxCell id="-0OhzZYQsD47DFEum3Dk-12" value="1) Запрос на основание&lt;br&gt;2) Направление перевода&lt;br&gt;3) Конец&lt;br&gt;4) Ввод числа" style="text;html=1;strokeColor=none;fillColor=none;align=center;verticalAlign=middle;whiteSpace=wrap;rounded=0;fontSize=18;" vertex="1" parent="1">
          <mxGeometry x="305" y="-50" width="230" height="100" as="geometry" />
        </mxCell>
        <mxCell id="-0OhzZYQsD47DFEum3Dk-13" value="1) Разделение на дробную и целую часть&lt;br&gt;2) Сложение дробной и целой части" style="text;html=1;strokeColor=none;fillColor=none;align=center;verticalAlign=middle;whiteSpace=wrap;rounded=0;fontSize=18;" vertex="1" parent="1">
          <mxGeometry x="275" y="290" width="260" height="100" as="geometry" />
        </mxCell>
        <mxCell id="-0OhzZYQsD47DFEum3Dk-18" value="" style="endArrow=none;html=1;rounded=0;fontSize=18;entryX=0;entryY=0.5;entryDx=0;entryDy=0;exitX=0.5;exitY=0;exitDx=0;exitDy=0;" edge="1" parent="1" source="-0OhzZYQsD47DFEum3Dk-10" target="-0OhzZYQsD47DFEum3Dk-1">
          <mxGeometry width="50" height="50" relative="1" as="geometry">
            <mxPoint x="400" y="380" as="sourcePoint" />
            <mxPoint x="450" y="330" as="targetPoint" />
          </mxGeometry>
        </mxCell>
        <mxCell id="-0OhzZYQsD47DFEum3Dk-19" value="" style="endArrow=none;html=1;rounded=0;fontSize=18;entryX=0;entryY=1;entryDx=0;entryDy=0;exitX=0.5;exitY=0;exitDx=0;exitDy=0;" edge="1" parent="1" source="-0OhzZYQsD47DFEum3Dk-3" target="-0OhzZYQsD47DFEum3Dk-1">
          <mxGeometry width="50" height="50" relative="1" as="geometry">
            <mxPoint x="400" y="380" as="sourcePoint" />
            <mxPoint x="450" y="330" as="targetPoint" />
          </mxGeometry>
        </mxCell>
        <mxCell id="-0OhzZYQsD47DFEum3Dk-20" value="" style="endArrow=none;html=1;rounded=0;fontSize=18;entryX=1;entryY=1;entryDx=0;entryDy=0;exitX=0.5;exitY=0;exitDx=0;exitDy=0;" edge="1" parent="1" source="-0OhzZYQsD47DFEum3Dk-5" target="-0OhzZYQsD47DFEum3Dk-1">
          <mxGeometry width="50" height="50" relative="1" as="geometry">
            <mxPoint x="400" y="380" as="sourcePoint" />
            <mxPoint x="450" y="330" as="targetPoint" />
          </mxGeometry>
        </mxCell>
        <mxCell id="-0OhzZYQsD47DFEum3Dk-21" value="" style="endArrow=none;html=1;rounded=0;fontSize=18;entryX=1;entryY=0.5;entryDx=0;entryDy=0;exitX=0.5;exitY=0;exitDx=0;exitDy=0;" edge="1" parent="1" source="-0OhzZYQsD47DFEum3Dk-8" target="-0OhzZYQsD47DFEum3Dk-1">
          <mxGeometry width="50" height="50" relative="1" as="geometry">
            <mxPoint x="400" y="380" as="sourcePoint" />
            <mxPoint x="450" y="330" as="targetPoint" />
          </mxGeometry>
        </mxCell>
        <mxCell id="-0OhzZYQsD47DFEum3Dk-22" value="" style="endArrow=none;dashed=1;html=1;dashPattern=1 3;strokeWidth=2;rounded=0;fontSize=18;entryX=0.5;entryY=1;entryDx=0;entryDy=0;" edge="1" parent="1" source="-0OhzZYQsD47DFEum3Dk-1" target="-0OhzZYQsD47DFEum3Dk-12">
          <mxGeometry width="50" height="50" relative="1" as="geometry">
            <mxPoint x="400" y="380" as="sourcePoint" />
            <mxPoint x="450" y="330" as="targetPoint" />
          </mxGeometry>
        </mxCell>
      </root>
    </mxGraphModel>
  </diagram>
</mxfile>
